<mxfile host="65bd71144e">
    <diagram id="sg8pMC1o8Eswp-7TLDca" name="Page-1">
        <mxGraphModel dx="1035" dy="509" grid="1" gridSize="10" guides="1" tooltips="1" connect="1" arrows="1" fold="1" page="1" pageScale="1" pageWidth="850" pageHeight="1100" math="0" shadow="0">
            <root>
                <mxCell id="0"/>
                <mxCell id="1" parent="0"/>
                <mxCell id="17" value="&lt;font style=&quot;font-size: 30px;&quot;&gt;PostgreSql&lt;/font&gt;" style="shape=datastore;whiteSpace=wrap;html=1;" vertex="1" parent="1">
                    <mxGeometry x="340" y="1040" width="160" height="240" as="geometry"/>
                </mxCell>
                <mxCell id="33" value="" style="edgeStyle=none;html=1;fontSize=30;exitX=0.89;exitY=1.043;exitDx=0;exitDy=0;exitPerimeter=0;entryX=0.892;entryY=-0.027;entryDx=0;entryDy=0;entryPerimeter=0;" edge="1" parent="1" source="31" target="32">
                    <mxGeometry relative="1" as="geometry">
                        <mxPoint x="560" y="620" as="targetPoint"/>
                        <Array as="points"/>
                    </mxGeometry>
                </mxCell>
                <mxCell id="31" value="Blog.Client" style="html=1;dashed=0;whitespace=wrap;fontSize=30;" vertex="1" parent="1">
                    <mxGeometry x="240" y="510" width="360" height="50" as="geometry"/>
                </mxCell>
                <mxCell id="35" value="" style="edgeStyle=none;html=1;fontSize=30;exitX=0.89;exitY=1.039;exitDx=0;exitDy=0;entryX=0.892;entryY=-0.019;entryDx=0;entryDy=0;exitPerimeter=0;entryPerimeter=0;" edge="1" parent="1" source="32" target="34">
                    <mxGeometry relative="1" as="geometry">
                        <Array as="points"/>
                    </mxGeometry>
                </mxCell>
                <mxCell id="32" value="Blog.API" style="whiteSpace=wrap;html=1;fontSize=30;dashed=0;" vertex="1" parent="1">
                    <mxGeometry x="240" y="625" width="360" height="55" as="geometry"/>
                </mxCell>
                <mxCell id="37" value="" style="edgeStyle=none;html=1;fontSize=30;exitX=0.89;exitY=1.036;exitDx=0;exitDy=0;exitPerimeter=0;entryX=0.892;entryY=-0.031;entryDx=0;entryDy=0;entryPerimeter=0;" edge="1" parent="1" source="34" target="36">
                    <mxGeometry relative="1" as="geometry"/>
                </mxCell>
                <mxCell id="34" value="Blog.Services" style="whiteSpace=wrap;html=1;fontSize=30;dashed=0;" vertex="1" parent="1">
                    <mxGeometry x="240" y="760" width="360" height="60" as="geometry"/>
                </mxCell>
                <mxCell id="36" value="Blog.Data" style="whiteSpace=wrap;html=1;fontSize=30;dashed=0;" vertex="1" parent="1">
                    <mxGeometry x="240" y="900" width="360" height="60" as="geometry"/>
                </mxCell>
                <mxCell id="38" value="" style="endArrow=classic;html=1;fontSize=30;exitX=0.89;exitY=1.036;exitDx=0;exitDy=0;entryX=0.5;entryY=0;entryDx=0;entryDy=0;exitPerimeter=0;" edge="1" parent="1" source="36" target="17">
                    <mxGeometry width="50" height="50" relative="1" as="geometry">
                        <mxPoint x="320" y="1030" as="sourcePoint"/>
                        <mxPoint x="370" y="980" as="targetPoint"/>
                        <Array as="points">
                            <mxPoint x="560" y="1000"/>
                            <mxPoint x="420" y="1000"/>
                        </Array>
                    </mxGeometry>
                </mxCell>
                <mxCell id="39" value="" style="endArrow=classic;html=1;fontSize=30;exitX=0.5;exitY=0;exitDx=0;exitDy=0;entryX=0.106;entryY=1.003;entryDx=0;entryDy=0;entryPerimeter=0;" edge="1" parent="1" source="17" target="36">
                    <mxGeometry width="50" height="50" relative="1" as="geometry">
                        <mxPoint x="320" y="930" as="sourcePoint"/>
                        <mxPoint x="220" y="1040" as="targetPoint"/>
                        <Array as="points">
                            <mxPoint x="420" y="1000"/>
                            <mxPoint x="280" y="1000"/>
                        </Array>
                    </mxGeometry>
                </mxCell>
                <mxCell id="40" value="" style="endArrow=classic;html=1;fontSize=30;entryX=0.11;entryY=1.069;entryDx=0;entryDy=0;entryPerimeter=0;exitX=0.114;exitY=-0.042;exitDx=0;exitDy=0;exitPerimeter=0;" edge="1" parent="1" source="36" target="34">
                    <mxGeometry width="50" height="50" relative="1" as="geometry">
                        <mxPoint x="280" y="890" as="sourcePoint"/>
                        <mxPoint x="370" y="880" as="targetPoint"/>
                    </mxGeometry>
                </mxCell>
                <mxCell id="41" value="" style="endArrow=classic;html=1;fontSize=30;entryX=0.11;entryY=1.052;entryDx=0;entryDy=0;entryPerimeter=0;exitX=0.11;exitY=-0.053;exitDx=0;exitDy=0;exitPerimeter=0;" edge="1" parent="1" source="34" target="32">
                    <mxGeometry width="50" height="50" relative="1" as="geometry">
                        <mxPoint x="130" y="730" as="sourcePoint"/>
                        <mxPoint x="170" y="680" as="targetPoint"/>
                    </mxGeometry>
                </mxCell>
                <mxCell id="42" value="" style="endArrow=classic;html=1;fontSize=30;entryX=0.11;entryY=1.03;entryDx=0;entryDy=0;entryPerimeter=0;exitX=0.114;exitY=-0.015;exitDx=0;exitDy=0;exitPerimeter=0;" edge="1" parent="1" source="32" target="31">
                    <mxGeometry width="50" height="50" relative="1" as="geometry">
                        <mxPoint x="130" y="650" as="sourcePoint"/>
                        <mxPoint x="180" y="600" as="targetPoint"/>
                    </mxGeometry>
                </mxCell>
                <mxCell id="43" value="EF" style="text;html=1;align=center;verticalAlign=middle;resizable=0;points=[];autosize=1;strokeColor=none;fillColor=none;fontSize=30;" vertex="1" parent="1">
                    <mxGeometry x="390" y="1030" width="60" height="50" as="geometry"/>
                </mxCell>
            </root>
        </mxGraphModel>
    </diagram>
</mxfile>